<svg width="64" height="64" viewBox="0 0 64 64" fill="none" xmlns="http://www.w3.org/2000/svg">
  <rect width="64" height="64" rx="20" fill="#F8F3EA"/>
  <rect x="4" y="4" width="56" height="56" rx="18" stroke="#183F6B" stroke-opacity="0.12" stroke-width="2"/>
  <path d="M18 44V20H30.5C35.7 20 39 22.6 39 27.1C39 30.3 37.1 32.5 34.1 33.4C37.8 34.2 40.2 36.7 40.2 40.2C40.2 45.2 36.4 48 30.2 48H18V44ZM23.4 30.9H29.6C32.2 30.9 33.6 29.6 33.6 27.5C33.6 25.3 32.1 24.1 29.3 24.1H23.4V30.9ZM23.4 43.9H29.9C33.2 43.9 34.8 42.5 34.8 39.9C34.8 37.4 33.2 35.9 30 35.9H23.4V43.9Z" fill="#183F6B"/>
  <path d="M42.5 48V20H47.9V31.3H58.2V35.9H47.9V48H42.5Z" fill="#1E8F97"/>
</svg>
